<?xml version="1.0" encoding="utf-8"?>
<!-- Svg Vector Icons : http://www.onlinewebfonts.com/icon -->
<!DOCTYPE svg PUBLIC "-//W3C//DTD SVG 1.1//EN" "http://www.w3.org/Graphics/SVG/1.1/DTD/svg11.dtd">
<svg version="1.1" xmlns="http://www.w3.org/2000/svg" xmlns:xlink="http://www.w3.org/1999/xlink" x="0px" y="0px" viewBox="0 0 1000 1000" enable-background="new 0 0 1000 1000" xml:space="preserve">
<metadata> Svg Vector Icons : http://www.onlinewebfonts.com/icon </metadata>
<g><g transform="translate(0.000000,511.000000) scale(0.100000,-0.100000)"><path d="M3111.9,4978.1c-35-17.5-721.8-689-1524.6-1491.8C3.6,1898.2,77.9,1983.5,112.9,1777.8c13.1-70,59.1-124.7,269.1-330.3C1477.9,382.3,2971.9-448.9,4479-833.9c185.9-48.1,350-98.4,363.1-113.8c13.1-15.3,627.8-778.7,1362.8-1699.6c737.1-920.9,1397.8-1728.1,1469.9-1795.9c544.7-518.4,1478.7-437.5,1938.1,166.2c380.6,498.7,382.8,1172.5,6.6,1649.3c-54.7,70-715.3,612.5-1809,1491.8c-949.3,759-1734.6,1393.4-1749.9,1406.5c-15.3,13.1-65.6,177.2-113.8,363.1c-332.5,1303.7-986.5,2576.8-1872.4,3642.1c-258.1,310.6-608.1,671.5-682.5,702.2C3302.2,5015.2,3197.2,5015.2,3111.9,4978.1z M3431.2,4468.4C4417.8,3460,5249,1963.8,5603.3,559.5c124.7-483.4,155.3-385-255.9-796.2l-356.6-356.5l-216.6,45.9C3825-339.6,2740,130.7,1847.6,725.7C1379.4,1036.3,874.2,1441,585.4,1736.3l-120.3,122.5l1389,1389c763.4,763.4,1393.4,1389,1399.9,1389S3341.6,4560.2,3431.2,4468.4z M7596.1-1411.4C8462.3-2107,9217-2719.5,9273.8-2772c374-363.1,369.7-993.1-13.1-1375.9c-378.4-376.3-1008.4-387.2-1364.9-24.1c-50.3,50.3-671.5,815.9-1380.3,1699.6L5222.7-864.5L5599-488.3c231.9,231.9,385,369.7,398.1,358.8C6010.2-140.5,6729.9-715.8,7596.1-1411.4z"/><path d="M8285.1-2726c-496.6-179.4-640.9-791.8-273.4-1157.1c142.2-144.4,273.4-194.7,492.2-196.9c159.7,0,201.3,8.8,297.5,59.1c166.3,87.5,234.1,153.1,317.2,306.2c67.8,126.9,74.4,153.1,74.4,323.7c-2.2,218.7-52.5,350-196.9,492.2C8816.7-2719.5,8510.4-2645.1,8285.1-2726z M8641.7-3071.6c225.3-94.1,280-387.2,105-562.1c-142.2-142.2-343.4-142.2-485.6,0C7989.8-3364.8,8289.5-2922.9,8641.7-3071.6z"/></g></g>
</svg>