<?xml version="1.0" standalone="no"?>
<!DOCTYPE svg PUBLIC "-//W3C//DTD SVG 20010904//EN"
 "http://www.w3.org/TR/2001/REC-SVG-20010904/DTD/svg10.dtd">
<svg version="1.0" xmlns="http://www.w3.org/2000/svg"
 width="200.000000pt" height="200.000000pt" viewBox="0 0 200.000000 200.000000"
 preserveAspectRatio="xMidYMid meet">

<g transform="translate(0.000000,200.000000) scale(0.100000,-0.100000)"
fill="#000000" stroke="none">
<path d="M302 1239 c-52 -10 -102 -39 -137 -80 -31 -38 -31 -50 -1 -78 l24
-22 5 23 c17 64 130 148 201 148 16 0 27 2 25 4 -11 9 -78 12 -117 5z"/>
<path d="M335 1166 c-62 -27 -121 -129 -94 -162 10 -13 14 -10 25 21 26 76 94
117 159 95 42 -14 82 -60 91 -104 8 -46 -23 -115 -69 -152 l-36 -28 21 -23
c28 -30 40 -29 82 7 107 94 102 271 -10 336 -47 27 -120 32 -169 10z"/>
<path d="M354 1068 c-58 -28 -48 -124 10 -102 24 9 28 34 5 34 -14 0 -19 5
-17 18 2 12 13 17 38 17 29 0 36 -4 38 -24 7 -45 -7 -72 -49 -90 -32 -15 -37
-20 -26 -30 34 -28 105 33 114 97 9 68 -51 110 -113 80z"/>
</g>
</svg>
