<?xml version="1.0" encoding="utf-8"?>
<!-- Svg Vector Icons : http://www.onlinewebfonts.com/icon -->
<!DOCTYPE svg PUBLIC "-//W3C//DTD SVG 1.1//EN" "http://www.w3.org/Graphics/SVG/1.1/DTD/svg11.dtd">
<svg version="1.1" xmlns="http://www.w3.org/2000/svg" xmlns:xlink="http://www.w3.org/1999/xlink" x="0px" y="0px" viewBox="0 0 1000 1000" enable-background="new 0 0 1000 1000" xml:space="preserve">
<metadata> Svg Vector Icons : http://www.onlinewebfonts.com/icon </metadata>
<g><g transform="translate(0.000000,512.000000) scale(0.100000,-0.100000)"><path d="M4597.8,4689.2v-331.3l-120.6-32.6c-67-17.2-197.3-70.9-291.1-118.7l-170.4-86.2L3784,4352.2L3554.2,4582l-281.5-281.5l-283.4-283.4l229.8-229.8l231.7-231.7l-86.2-170.4c-47.9-93.8-101.5-224.1-118.7-291.1l-32.5-120.6H2882h-333.2v-402.2v-402.2h331.3h329.4l44-141.7c24.9-78.5,78.5-208.7,120.7-291.1l76.6-149.4L3219,1355.2l-229.8-229.8L3272.6,842l281.5-281.5l231.7,231.7l231.7,229.8l151.3-76.6c84.3-42.1,216.4-95.8,291.1-118.7l137.9-44V451.3V120H5000h402.2v331.3v331.3l137.9,44c74.7,23,206.8,76.6,291.1,118.7l151.3,76.6l231.7-229.8l231.7-231.7l283.4,283.4l281.5,281.5l-231.7,231.7l-229.8,231.7l76.6,151.3c42.1,84.3,95.8,216.4,118.7,291.1l44.1,137.9h331.3h331.3v402.2v402.2h-331.3h-331.3l-44.1,139.8c-23,74.7-76.6,206.8-118.7,291.1l-76.6,151.3l231.7,229.8l229.8,231.7l-281.5,281.5L6445.8,4582L6216,4352.2l-231.7-231.7l-149.4,76.6c-82.3,42.1-212.6,95.7-291.1,120.6l-141.7,44v329.4v331.3H5000h-402.2V4689.2z M5287.3,3766.2c222.1-51.7,392.6-151.3,574.5-333.2c252.8-252.8,363.9-513.2,363.9-861.8c0-348.5-111.1-609-363.9-861.8c-252.8-252.8-513.2-363.9-861.8-363.9c-348.5,0-609,111.1-861.8,363.9c-252.8,252.8-363.9,513.2-363.9,861.8c0,348.5,111.1,609,363.9,861.8c178.1,180,350.4,281.5,564.9,333.2C4856.4,3802.6,5132.1,3802.6,5287.3,3766.2z"/><path d="M4837.2,2937c-321.7-149.4-314.1-601.3,13.4-737.3c256.6-107.2,551.5,91.9,551.5,371.5C5402.2,2858.5,5095.8,3055.7,4837.2,2937z"/><path d="M411.6,3777.7c-101.5-23-197.2-93.8-252.8-187.7l-51.7-90l-5.7-3111.9c-3.8-2282.7,0-3138.7,15.3-3213.4c24.9-116.8,103.4-216.4,212.6-273.8c70.8-34.5,128.3-36.4,1759.9-36.4h1685.2l1.9-61.3c15.3-406-93.8-766-331.3-1082l-74.7-101.5h-199.2h-201.1v-201.1v-201.1H5000h2029.9v201.1v201.1h-199.2h-201.1l-84.2,120.6c-208.8,293-319.8,632-319.8,974.7v149.4h1685.2c1641.2,0,1689.1,1.9,1759.9,38.3c105.3,51.7,187.7,160.9,212.6,275.8c15.3,68.9,19.2,1020.7,15.3,3209.6l-5.7,3111.9l-53.6,90c-34.5,59.4-84.3,109.2-143.6,143.6l-90,53.6L8539,3793l-1068.6,5.8v-203v-201.1h1015h1015V933.9v-2460.8H5000H499.7V933.9v2460.8h1024.5h1024.5v201.1v201.1l-1037.9-1.9C938.2,3793,444.2,3787.3,411.6,3777.7z M5132.1-2381c76.6-63.2,95.8-162.8,49.8-249c-105.3-197.3-392.6-116.8-392.6,109.1c0,42.1,19.2,78.5,65.1,124.5C4938.7-2312.1,5044-2306.3,5132.1-2381z"/></g></g>
</svg>